<svg width="143" height="143" viewBox="0 0 143 143" fill="none" xmlns="http://www.w3.org/2000/svg">
<path d="M71.5 0C32.076 0 0 32.076 0 71.5C0 110.924 32.076 143 71.5 143C110.924 143 143 110.924 143 71.5C143 32.076 110.924 0 71.5 0ZM71.5 11C73.359 11 75.185 11.11 77 11.275V16.5H88V13.343C101.366 17.1596 113.015 25.4503 121 36.828V55L126.5 66V71.5H132C131.996 73.5167 131.895 75.5077 131.697 77.473C131.648 78.001 131.538 78.507 131.478 79.0295C131.29 80.476 131.104 81.9115 130.818 83.325C130.713 83.853 130.576 84.37 130.454 84.898C130.135 86.295 129.795 87.681 129.377 89.0395C129.23 89.5052 129.076 89.9672 128.914 90.4255C128.461 91.8221 127.956 93.2017 127.402 94.5615C127.233 94.9538 127.061 95.3443 126.885 95.733C126.276 97.1373 125.616 98.5123 124.905 99.858C124.736 100.188 124.559 100.507 124.372 100.815C122.658 103.901 120.678 106.831 118.454 109.571L117.959 110.182C116.884 111.461 115.764 112.693 114.598 113.878L114.092 114.406C112.897 115.588 111.653 116.72 110.363 117.799C110.182 117.953 110.028 118.113 109.84 118.261C108.554 119.317 107.201 120.296 105.831 121.247C105.617 121.396 105.424 121.566 105.209 121.709C103.889 122.59 102.525 123.398 101.139 124.185C94.5572 127.892 87.3336 130.321 79.849 131.346L101.91 114.714L107.959 108.663L115.5 93.5V88L104.5 82.5H99L88 71.5H77L71.5 77V82.5L66 88V99L77 107.8L66.1265 131.73C35.277 128.992 11 103.043 11 71.5C11 52.756 19.5745 35.9755 33 24.8655V27.5L27.5 33V45.1L33 66L60.5 77H66V71.5L49.5 66V55H66L71.5 41.25L82.5 33V27.5L66 16.5L58.091 12.5455C62.489 11.5318 66.9867 11.0134 71.5 11ZM66 60.5V66H77V60.5H66Z" fill="#F9F9F9"/>
</svg>
